<?xml version="1.0" encoding="UTF-8" standalone="no"?>
<!-- Created with Inkscape (http://www.inkscape.org/) -->

<svg
   width="7.8832378mm"
   height="7.6222792mm"
   viewBox="0 0 7.8832378 7.6222792"
   version="1.1"
   id="svg1"
   sodipodi:docname="star-half.svg"
   inkscape:version="1.4.2 (ebf0e940, 2025-05-08)"
   xmlns:inkscape="http://www.inkscape.org/namespaces/inkscape"
   xmlns:sodipodi="http://sodipodi.sourceforge.net/DTD/sodipodi-0.dtd"
   xmlns="http://www.w3.org/2000/svg"
   xmlns:svg="http://www.w3.org/2000/svg">
  <sodipodi:namedview
     id="namedview1"
     pagecolor="#505050"
     bordercolor="#eeeeee"
     borderopacity="1"
     inkscape:showpageshadow="0"
     inkscape:pageopacity="0"
     inkscape:pagecheckerboard="0"
     inkscape:deskcolor="#505050"
     inkscape:document-units="mm"
     inkscape:zoom="18.142443"
     inkscape:cx="13.862521"
     inkscape:cy="14.579073"
     inkscape:window-width="1664"
     inkscape:window-height="934"
     inkscape:window-x="8"
     inkscape:window-y="33"
     inkscape:window-maximized="0"
     inkscape:current-layer="layer1" />
  <defs
     id="defs1" />
  <g
     inkscape:label="Layer 1"
     inkscape:groupmode="layer"
     id="layer1"
     transform="translate(-47.101356,-90.376398)">
    <path
       id="text2"
       style="font-size:10.5833px;line-height:1.25;-inkscape-font-specification:sans-serif;text-align:center;stroke-width:0.264583"
       d="M 51.026181 90.376398 C 50.948431 90.376996 50.894044 90.402843 50.8634 90.453913 C 50.83584 90.505593 50.76177 90.791533 50.641192 91.311741 L 50.170936 93.311619 L 48.088376 93.135919 C 47.619844 93.094579 47.378686 93.073908 47.364906 93.073908 C 47.189206 93.073908 47.101356 93.149698 47.101356 93.301284 C 47.101356 93.359854 47.116855 93.404636 47.147865 93.435643 C 47.182315 93.466653 47.437255 93.633737 47.912676 93.936904 L 49.597328 95.016942 L 48.811846 97.011652 C 48.615477 97.504299 48.51729 97.766127 48.51729 97.797134 C 48.51729 97.845364 48.536244 97.890154 48.574134 97.931492 C 48.615474 97.969382 48.660264 97.988336 48.708493 97.988336 C 48.749833 97.988336 48.791173 97.974555 48.832516 97.946995 C 48.877306 97.915985 49.127073 97.704115 49.581825 97.311375 L 51.026181 96.062873 L 52.969215 97.900487 C 53.038115 97.965947 53.110465 97.998672 53.186256 97.998672 C 53.237936 97.998672 53.332673 97.952162 53.470476 97.859145 C 53.611725 97.766125 53.68235 97.685167 53.68235 97.616266 C 53.68235 97.588706 53.673751 97.552536 53.656511 97.507746 C 53.639281 97.462956 53.503204 97.171847 53.248268 96.634414 L 52.462786 94.991103 L 54.560849 93.802545 C 54.795117 93.66819 54.924309 93.590675 54.948422 93.570002 C 54.972532 93.545882 54.984596 93.504542 54.984596 93.445978 C 54.984596 93.346068 54.957033 93.237549 54.901913 93.120417 C 54.846793 92.999839 54.77789 92.939549 54.695208 92.939549 C 54.640088 92.939549 54.595298 92.942954 54.560849 92.949884 L 51.925351 93.301284 L 51.589454 91.549453 C 51.475765 90.95001 51.405141 90.619279 51.377581 90.557266 C 51.353471 90.491806 51.310401 90.445299 51.24839 90.417739 C 51.19415 90.393629 51.119958 90.379935 51.026181 90.376915 L 51.026181 90.376398 z M 51.026181 90.686457 L 51.150204 90.686457 L 51.713478 93.575169 L 54.633196 93.203099 L 54.705543 93.414972 L 52.126889 94.877415 L 53.372291 97.554254 L 53.150082 97.693781 L 51.026181 95.716641 L 51.026181 90.686457 z M 48.824248 97.988336 C 48.844948 97.995236 48.862381 97.998672 48.876441 97.998672 C 48.895391 97.998672 48.915199 97.995276 48.935869 97.988336 L 48.824248 97.988336 z " />
  </g>
</svg>
